<svg xmlns="http://www.w3.org/2000/svg" viewBox="0 0 500 500"><g id="freepik--background-simple--inject-83"><path d="M453.56,211.48s-61.1-149-172.8-177.82S122.21,92.88,105.1,153.92,24.91,295.76,30.63,351.27C36.08,404,82.31,429,125.49,439.68c54.88,13.61,117.25,14.64,172.34,3.3a358.52,358.52,0,0,0,38.73-10.49c25.88-8.44,51.29-15,77.5-22,49.88-13.3,69.64-66.87,64-118.13C474.9,263.54,464.33,237.73,453.56,211.48Z" style="fill:#06283D"></path><path d="M453.56,211.48s-61.1-149-172.8-177.82S122.21,92.88,105.1,153.92,24.91,295.76,30.63,351.27C36.08,404,82.31,429,125.49,439.68c54.88,13.61,117.25,14.64,172.34,3.3a358.52,358.52,0,0,0,38.73-10.49c25.88-8.44,51.29-15,77.5-22,49.88-13.3,69.64-66.87,64-118.13C474.9,263.54,464.33,237.73,453.56,211.48Z" style="fill:#fff;opacity:0.7000000000000001"></path></g><g id="freepik--Graphics--inject-83"><g style="opacity:0.2"><path d="M382.26,279.49a.94.94,0,0,1-.7-1.28l.05-.13a.94.94,0,0,1,1.3-.57,11.1,11.1,0,0,1,2.31,1.22,11,11,0,0,1-.44-2.66,1,1,0,0,1,1-1.06h.14a1,1,0,0,1,1,1.06,11.45,11.45,0,0,1-.43,2.66,12.14,12.14,0,0,1,2.3-1.22.93.93,0,0,1,1.3.59l0,.09a.93.93,0,0,1-.68,1.3,11.36,11.36,0,0,1-2.57.38,10.86,10.86,0,0,1,1.92,1.81,1,1,0,0,1-.16,1.41l-.11.09a.94.94,0,0,1-1.44-.28,12.13,12.13,0,0,1-1.19-2.35,13.26,13.26,0,0,1-1.22,2.35.94.94,0,0,1-1.44.28l-.1-.09a1,1,0,0,1-.17-1.41,12.72,12.72,0,0,1,1.93-1.84A10.25,10.25,0,0,1,382.26,279.49Z"></path><path d="M392.4,279.49a.94.94,0,0,1-.7-1.28l.05-.13a.94.94,0,0,1,1.3-.57,11.1,11.1,0,0,1,2.31,1.22,11,11,0,0,1-.44-2.66,1,1,0,0,1,1-1.06H396a1,1,0,0,1,1,1.06,11.45,11.45,0,0,1-.43,2.66,12.14,12.14,0,0,1,2.3-1.22,1,1,0,0,1,1.31.59l0,.09a.93.93,0,0,1-.68,1.3,11.36,11.36,0,0,1-2.57.38,10.86,10.86,0,0,1,1.92,1.81,1,1,0,0,1-.16,1.41l-.11.09a.93.93,0,0,1-1.43-.28,11.57,11.57,0,0,1-1.2-2.35,13.26,13.26,0,0,1-1.22,2.35.94.94,0,0,1-1.44.28l-.1-.09a1,1,0,0,1-.17-1.41,12.72,12.72,0,0,1,1.93-1.84A10.25,10.25,0,0,1,392.4,279.49Z"></path><path d="M402.54,279.49a1,1,0,0,1-.7-1.28l.05-.13a.94.94,0,0,1,1.3-.57,11.1,11.1,0,0,1,2.31,1.22,11,11,0,0,1-.43-2.66,1,1,0,0,1,1-1.06h.14a1,1,0,0,1,1,1.06,11.45,11.45,0,0,1-.43,2.66,12.14,12.14,0,0,1,2.3-1.22,1,1,0,0,1,1.31.59l0,.09a.93.93,0,0,1-.67,1.3,11.54,11.54,0,0,1-2.58.38,10.86,10.86,0,0,1,1.92,1.81,1,1,0,0,1-.16,1.41l-.11.09a.93.93,0,0,1-1.43-.28,12.1,12.1,0,0,1-1.2-2.35,13.26,13.26,0,0,1-1.22,2.35.93.93,0,0,1-1.43.28l-.11-.09a1,1,0,0,1-.17-1.41,12.72,12.72,0,0,1,1.93-1.84A10.25,10.25,0,0,1,402.54,279.49Z"></path><path d="M412.68,279.49a1,1,0,0,1-.7-1.28l0-.13a.94.94,0,0,1,1.3-.57,11.1,11.1,0,0,1,2.31,1.22,11.45,11.45,0,0,1-.43-2.66,1,1,0,0,1,1-1.06h.14a1,1,0,0,1,1,1.06,11.45,11.45,0,0,1-.43,2.66,12.14,12.14,0,0,1,2.3-1.22,1,1,0,0,1,1.31.59l0,.09a.93.93,0,0,1-.67,1.3,11.54,11.54,0,0,1-2.58.38,10.86,10.86,0,0,1,1.92,1.81,1,1,0,0,1-.16,1.41l-.11.09a.93.93,0,0,1-1.43-.28,12.1,12.1,0,0,1-1.2-2.35A13.26,13.26,0,0,1,415,282.9a.93.93,0,0,1-1.43.28l-.11-.09a1,1,0,0,1-.17-1.41,12.72,12.72,0,0,1,1.93-1.84A10.25,10.25,0,0,1,412.68,279.49Z"></path><path d="M422.82,279.49a1,1,0,0,1-.7-1.28l.05-.13a1,1,0,0,1,1.31-.57,11.3,11.3,0,0,1,2.3,1.22,11.45,11.45,0,0,1-.43-2.66,1,1,0,0,1,1-1.06h.14a1,1,0,0,1,1,1.06,11.45,11.45,0,0,1-.43,2.66,12.14,12.14,0,0,1,2.3-1.22,1,1,0,0,1,1.31.59l0,.09a.93.93,0,0,1-.67,1.3,11.54,11.54,0,0,1-2.58.38,10.86,10.86,0,0,1,1.92,1.81,1,1,0,0,1-.16,1.41l-.11.09a.93.93,0,0,1-1.43-.28,12.1,12.1,0,0,1-1.2-2.35,13.26,13.26,0,0,1-1.22,2.35.93.93,0,0,1-1.43.28l-.11-.09a.94.94,0,0,1-.16-1.41,12.16,12.16,0,0,1,1.92-1.84A10.25,10.25,0,0,1,422.82,279.49Z"></path><path d="M433,279.49a1,1,0,0,1-.7-1.28l.05-.13a1,1,0,0,1,1.31-.57,11.3,11.3,0,0,1,2.3,1.22,11.45,11.45,0,0,1-.43-2.66,1,1,0,0,1,1-1.06h.14a1,1,0,0,1,1,1.06,11.45,11.45,0,0,1-.43,2.66,11.9,11.9,0,0,1,2.31-1.22.94.94,0,0,1,1.3.59l0,.09a.93.93,0,0,1-.67,1.3,11.45,11.45,0,0,1-2.58.38,11.31,11.31,0,0,1,1.93,1.81,1,1,0,0,1-.17,1.41l-.11.09a.93.93,0,0,1-1.43-.28,12.1,12.1,0,0,1-1.2-2.35,13.26,13.26,0,0,1-1.22,2.35.93.93,0,0,1-1.43.28l-.11-.09a.94.94,0,0,1-.16-1.41,12.16,12.16,0,0,1,1.92-1.84A10.25,10.25,0,0,1,433,279.49Z"></path><path d="M443.11,279.49a1,1,0,0,1-.71-1.28l.05-.13a1,1,0,0,1,1.31-.57,11.3,11.3,0,0,1,2.3,1.22,11.45,11.45,0,0,1-.43-2.66,1,1,0,0,1,1-1.06h.14a1,1,0,0,1,1,1.06,11,11,0,0,1-.44,2.66,11.9,11.9,0,0,1,2.31-1.22.94.94,0,0,1,1.3.59l0,.09a.93.93,0,0,1-.68,1.3,11.45,11.45,0,0,1-2.58.38,11.31,11.31,0,0,1,1.93,1.81,1,1,0,0,1-.17,1.41l-.1.09a.94.94,0,0,1-1.44-.28,11.59,11.59,0,0,1-1.19-2.35,13.22,13.22,0,0,1-1.23,2.35.93.93,0,0,1-1.43.28l-.11-.09a.94.94,0,0,1-.16-1.41,12.16,12.16,0,0,1,1.92-1.84A10.1,10.1,0,0,1,443.11,279.49Z"></path><path d="M453.25,279.49a1,1,0,0,1-.71-1.28l0-.13a1,1,0,0,1,1.31-.57,11.3,11.3,0,0,1,2.3,1.22,11.45,11.45,0,0,1-.43-2.66,1,1,0,0,1,1-1.06h.14a1,1,0,0,1,1,1.06,11,11,0,0,1-.44,2.66,11.9,11.9,0,0,1,2.31-1.22.94.94,0,0,1,1.3.59l0,.09a.93.93,0,0,1-.68,1.3,11.45,11.45,0,0,1-2.58.38,11.31,11.31,0,0,1,1.93,1.81,1,1,0,0,1-.17,1.41l-.11.09a.93.93,0,0,1-1.43-.28,11.59,11.59,0,0,1-1.19-2.35,13.22,13.22,0,0,1-1.23,2.35.93.93,0,0,1-1.43.28l-.11-.09a.94.94,0,0,1-.16-1.41,12.16,12.16,0,0,1,1.92-1.84A10.1,10.1,0,0,1,453.25,279.49Z"></path></g><g style="opacity:0.2"><path d="M182.79,55a.94.94,0,0,1-.71-1.27l.06-.14a.94.94,0,0,1,1.3-.57,11.83,11.83,0,0,1,2.3,1.22,11.45,11.45,0,0,1-.43-2.66.94.94,0,0,1,1-1.05h.13a1,1,0,0,1,1,1.05,11,11,0,0,1-.44,2.66A12.47,12.47,0,0,1,189.27,53a.94.94,0,0,1,1.3.6l0,.08a.93.93,0,0,1-.68,1.3,11.36,11.36,0,0,1-2.58.38,11,11,0,0,1,1.93,1.82,1,1,0,0,1-.16,1.41l-.11.08a1,1,0,0,1-1.44-.27A12,12,0,0,1,186.37,56a13.76,13.76,0,0,1-1.22,2.36,1,1,0,0,1-1.44.27l-.11-.08a1,1,0,0,1-.16-1.41,12.18,12.18,0,0,1,1.92-1.85A10.17,10.17,0,0,1,182.79,55Z"></path><path d="M192.93,55a.94.94,0,0,1-.71-1.27l.06-.14a.94.94,0,0,1,1.3-.57,11.55,11.55,0,0,1,2.3,1.22,11.45,11.45,0,0,1-.43-2.66.94.94,0,0,1,1-1.05h.13a.94.94,0,0,1,1,1.05,11,11,0,0,1-.44,2.66A12.47,12.47,0,0,1,199.41,53a.94.94,0,0,1,1.3.6l0,.08a.93.93,0,0,1-.68,1.3,11.36,11.36,0,0,1-2.58.38,11,11,0,0,1,1.93,1.82,1,1,0,0,1-.16,1.41l-.11.08a1,1,0,0,1-1.44-.27A12,12,0,0,1,196.51,56a13.76,13.76,0,0,1-1.22,2.36,1,1,0,0,1-1.44.27l-.11-.08a1,1,0,0,1-.16-1.41,12.63,12.63,0,0,1,1.92-1.85A10.17,10.17,0,0,1,192.93,55Z"></path><path d="M203.07,55a.94.94,0,0,1-.71-1.27l.06-.14a.94.94,0,0,1,1.3-.57,11.55,11.55,0,0,1,2.3,1.22,11.45,11.45,0,0,1-.43-2.66.94.94,0,0,1,1-1.05h.13a.94.94,0,0,1,1,1.05,11,11,0,0,1-.44,2.66A12.47,12.47,0,0,1,209.55,53a.94.94,0,0,1,1.3.6l0,.08a.93.93,0,0,1-.68,1.3,11.36,11.36,0,0,1-2.58.38,11,11,0,0,1,1.93,1.82,1,1,0,0,1-.16,1.41l-.11.08a1,1,0,0,1-1.44-.27A12,12,0,0,1,206.65,56a13.76,13.76,0,0,1-1.22,2.36,1,1,0,0,1-1.44.27l-.11-.08a1,1,0,0,1-.16-1.41,12.63,12.63,0,0,1,1.92-1.85A10.17,10.17,0,0,1,203.07,55Z"></path><path d="M213.21,55a.94.94,0,0,1-.71-1.27l.06-.14a.94.94,0,0,1,1.3-.57,11.55,11.55,0,0,1,2.3,1.22,11.45,11.45,0,0,1-.43-2.66.94.94,0,0,1,1-1.05h.13a.94.94,0,0,1,1,1.05,11,11,0,0,1-.44,2.66A12.47,12.47,0,0,1,219.69,53a.94.94,0,0,1,1.3.6l0,.08a.93.93,0,0,1-.68,1.3,11.36,11.36,0,0,1-2.58.38,11,11,0,0,1,1.93,1.82,1,1,0,0,1-.16,1.41l-.11.08A1,1,0,0,1,218,58.4,12,12,0,0,1,216.79,56a13.76,13.76,0,0,1-1.22,2.36,1,1,0,0,1-1.44.27l-.11-.08a1,1,0,0,1-.16-1.41,12.63,12.63,0,0,1,1.92-1.85A10.17,10.17,0,0,1,213.21,55Z"></path><path d="M223.35,55a.94.94,0,0,1-.71-1.27l.06-.14A.94.94,0,0,1,224,53a11.55,11.55,0,0,1,2.3,1.22,11.45,11.45,0,0,1-.43-2.66.94.94,0,0,1,1-1.05H227a.94.94,0,0,1,1,1.05,11.45,11.45,0,0,1-.43,2.66,12.12,12.12,0,0,1,2.3-1.22.94.94,0,0,1,1.3.6l0,.08a.93.93,0,0,1-.68,1.3,11.36,11.36,0,0,1-2.58.38,11,11,0,0,1,1.93,1.82,1,1,0,0,1-.16,1.41l-.11.08a1,1,0,0,1-1.44-.27A12,12,0,0,1,226.93,56a13.76,13.76,0,0,1-1.22,2.36,1,1,0,0,1-1.44.27l-.11-.08a1,1,0,0,1-.16-1.41,12.28,12.28,0,0,1,1.93-1.85A10.18,10.18,0,0,1,223.35,55Z"></path><path d="M233.49,55a1,1,0,0,1-.71-1.27l.06-.14a.94.94,0,0,1,1.3-.57,11.88,11.88,0,0,1,2.31,1.22,11,11,0,0,1-.44-2.66.94.94,0,0,1,1-1.05h.13a.94.94,0,0,1,1,1.05,11.45,11.45,0,0,1-.43,2.66A12.42,12.42,0,0,1,240,53a.94.94,0,0,1,1.3.6l0,.08a.93.93,0,0,1-.68,1.3,11.36,11.36,0,0,1-2.57.38A11.24,11.24,0,0,1,240,57.18a1,1,0,0,1-.16,1.41l-.11.08a1,1,0,0,1-1.44-.27A12,12,0,0,1,237.07,56a13.76,13.76,0,0,1-1.22,2.36,1,1,0,0,1-1.44.27l-.11-.08a1,1,0,0,1-.16-1.41,12.28,12.28,0,0,1,1.93-1.85A10.18,10.18,0,0,1,233.49,55Z"></path><path d="M243.63,55a.93.93,0,0,1-.7-1.27l0-.14a.94.94,0,0,1,1.3-.57,11.88,11.88,0,0,1,2.31,1.22,11,11,0,0,1-.44-2.66,1,1,0,0,1,1-1.05h.13a.94.94,0,0,1,1,1.05,11.45,11.45,0,0,1-.43,2.66,12.42,12.42,0,0,1,2.3-1.22.94.94,0,0,1,1.3.6l0,.08a.93.93,0,0,1-.68,1.3,11.36,11.36,0,0,1-2.57.38,11.24,11.24,0,0,1,1.92,1.82,1,1,0,0,1-.16,1.41l-.11.08a1,1,0,0,1-1.44-.27A12,12,0,0,1,247.21,56,13.76,13.76,0,0,1,246,58.4a1,1,0,0,1-1.44.27l-.11-.08a1,1,0,0,1-.16-1.41,12.28,12.28,0,0,1,1.93-1.85A10.18,10.18,0,0,1,243.63,55Z"></path><path d="M253.77,55a.93.93,0,0,1-.7-1.27l.05-.14a.94.94,0,0,1,1.3-.57,11.88,11.88,0,0,1,2.31,1.22,11,11,0,0,1-.44-2.66.94.94,0,0,1,1-1.05h.13a.94.94,0,0,1,1,1.05,11.45,11.45,0,0,1-.43,2.66,12.42,12.42,0,0,1,2.3-1.22.94.94,0,0,1,1.3.6l0,.08a.93.93,0,0,1-.68,1.3,11.36,11.36,0,0,1-2.57.38,11.24,11.24,0,0,1,1.92,1.82,1,1,0,0,1-.16,1.41l-.11.08a1,1,0,0,1-1.44-.27A12,12,0,0,1,257.35,56a13.76,13.76,0,0,1-1.22,2.36,1,1,0,0,1-1.44.27l-.11-.08a1,1,0,0,1-.16-1.41,12.28,12.28,0,0,1,1.93-1.85A10.18,10.18,0,0,1,253.77,55Z"></path></g><g style="opacity:0.2"><path d="M267.67,371.58a.94.94,0,0,1-.71-1.27l.05-.14a1,1,0,0,1,1.31-.57,11.83,11.83,0,0,1,2.3,1.22,11.46,11.46,0,0,1-.43-2.65.94.94,0,0,1,1-1.06h.14a1,1,0,0,1,1,1.06,11,11,0,0,1-.44,2.65,12.47,12.47,0,0,1,2.31-1.22.94.94,0,0,1,1.3.6l0,.08a.92.92,0,0,1-.68,1.3,10.91,10.91,0,0,1-2.58.38,11.75,11.75,0,0,1,1.93,1.82,1,1,0,0,1-.17,1.41l-.1.08a1,1,0,0,1-1.44-.27,11.7,11.7,0,0,1-1.19-2.36A13.35,13.35,0,0,1,270,375a.94.94,0,0,1-1.43.27l-.11-.08a.94.94,0,0,1-.16-1.41,12.16,12.16,0,0,1,1.92-1.84A10.07,10.07,0,0,1,267.67,371.58Z"></path><path d="M277.81,371.58a.94.94,0,0,1-.71-1.27l.06-.14a.94.94,0,0,1,1.3-.57,11.83,11.83,0,0,1,2.3,1.22,11.46,11.46,0,0,1-.43-2.65.94.94,0,0,1,1-1.06h.14a1,1,0,0,1,1,1.06,11,11,0,0,1-.44,2.65,12.47,12.47,0,0,1,2.31-1.22.94.94,0,0,1,1.3.6l0,.08a.92.92,0,0,1-.68,1.3,10.91,10.91,0,0,1-2.58.38,11.75,11.75,0,0,1,1.93,1.82,1,1,0,0,1-.17,1.41l-.1.08a1,1,0,0,1-1.44-.27,11.7,11.7,0,0,1-1.19-2.36,13.39,13.39,0,0,1-1.22,2.36,1,1,0,0,1-1.44.27l-.11-.08a.94.94,0,0,1-.16-1.41,12.16,12.16,0,0,1,1.92-1.84A10.07,10.07,0,0,1,277.81,371.58Z"></path><path d="M288,371.58a.94.94,0,0,1-.71-1.27l.06-.14a.94.94,0,0,1,1.3-.57,11.83,11.83,0,0,1,2.3,1.22,11.46,11.46,0,0,1-.43-2.65.94.94,0,0,1,1-1.06h.14a1,1,0,0,1,1,1.06,11,11,0,0,1-.44,2.65,12.47,12.47,0,0,1,2.31-1.22.94.94,0,0,1,1.3.6l0,.08a.92.92,0,0,1-.68,1.3,10.91,10.91,0,0,1-2.58.38,11.75,11.75,0,0,1,1.93,1.82,1,1,0,0,1-.17,1.41l-.1.08a1,1,0,0,1-1.44-.27,11.7,11.7,0,0,1-1.19-2.36,13.39,13.39,0,0,1-1.22,2.36,1,1,0,0,1-1.44.27l-.11-.08a1,1,0,0,1-.16-1.41,12.16,12.16,0,0,1,1.92-1.84A10.14,10.14,0,0,1,288,371.58Z"></path><path d="M298.09,371.58a.94.94,0,0,1-.71-1.27l.06-.14a.94.94,0,0,1,1.3-.57,11.83,11.83,0,0,1,2.3,1.22,11.46,11.46,0,0,1-.43-2.65.94.94,0,0,1,1-1.06h.14a1,1,0,0,1,1,1.06,11,11,0,0,1-.44,2.65,12.47,12.47,0,0,1,2.31-1.22.94.94,0,0,1,1.3.6l0,.08a.92.92,0,0,1-.68,1.3,10.83,10.83,0,0,1-2.58.38,11.75,11.75,0,0,1,1.93,1.82,1,1,0,0,1-.16,1.41l-.11.08a1,1,0,0,1-1.44-.27,11.7,11.7,0,0,1-1.19-2.36,13.39,13.39,0,0,1-1.22,2.36,1,1,0,0,1-1.44.27l-.11-.08a1,1,0,0,1-.16-1.41,12.62,12.62,0,0,1,1.92-1.84A10.14,10.14,0,0,1,298.09,371.58Z"></path><path d="M308.23,371.58a.94.94,0,0,1-.71-1.27l.06-.14a.94.94,0,0,1,1.3-.57,11.83,11.83,0,0,1,2.3,1.22,11.46,11.46,0,0,1-.43-2.65,1,1,0,0,1,1-1.06h.13a1,1,0,0,1,1,1.06,11,11,0,0,1-.44,2.65,12.47,12.47,0,0,1,2.31-1.22.94.94,0,0,1,1.3.6l0,.08a.92.92,0,0,1-.68,1.3,10.83,10.83,0,0,1-2.58.38,11.75,11.75,0,0,1,1.93,1.82,1,1,0,0,1-.16,1.41l-.11.08A1,1,0,0,1,313,375a11.7,11.7,0,0,1-1.19-2.36,13.39,13.39,0,0,1-1.22,2.36,1,1,0,0,1-1.44.27l-.11-.08a1,1,0,0,1-.16-1.41,12.62,12.62,0,0,1,1.92-1.84A10.14,10.14,0,0,1,308.23,371.58Z"></path><path d="M318.37,371.58a.94.94,0,0,1-.71-1.27l.06-.14a.94.94,0,0,1,1.3-.57,11.55,11.55,0,0,1,2.3,1.22,11.46,11.46,0,0,1-.43-2.65,1,1,0,0,1,1-1.06H322a1,1,0,0,1,1,1.06,11,11,0,0,1-.44,2.65,12.47,12.47,0,0,1,2.31-1.22.94.94,0,0,1,1.3.6l0,.08a.92.92,0,0,1-.68,1.3,10.83,10.83,0,0,1-2.58.38,11.75,11.75,0,0,1,1.93,1.82,1,1,0,0,1-.16,1.41l-.11.08a1,1,0,0,1-1.44-.27,11.7,11.7,0,0,1-1.19-2.36,13.39,13.39,0,0,1-1.22,2.36,1,1,0,0,1-1.44.27l-.11-.08a1,1,0,0,1-.16-1.41,13.1,13.1,0,0,1,1.92-1.84A10.14,10.14,0,0,1,318.37,371.58Z"></path><path d="M328.51,371.58a.94.94,0,0,1-.71-1.27l.06-.14a.94.94,0,0,1,1.3-.57,11.55,11.55,0,0,1,2.3,1.22,11.46,11.46,0,0,1-.43-2.65,1,1,0,0,1,1-1.06h.13a1,1,0,0,1,1,1.06,11,11,0,0,1-.44,2.65A12.47,12.47,0,0,1,335,369.6a.94.94,0,0,1,1.3.6l0,.08a.92.92,0,0,1-.68,1.3,10.83,10.83,0,0,1-2.58.38,11.75,11.75,0,0,1,1.93,1.82,1,1,0,0,1-.16,1.41l-.11.08a1,1,0,0,1-1.44-.27,11.7,11.7,0,0,1-1.19-2.36,13.39,13.39,0,0,1-1.22,2.36,1,1,0,0,1-1.44.27l-.11-.08a1,1,0,0,1-.16-1.41,12.72,12.72,0,0,1,1.93-1.84A10.16,10.16,0,0,1,328.51,371.58Z"></path><path d="M338.65,371.58a.94.94,0,0,1-.71-1.27l.06-.14a.94.94,0,0,1,1.3-.57,11.55,11.55,0,0,1,2.3,1.22,11.46,11.46,0,0,1-.43-2.65,1,1,0,0,1,1-1.06h.13a1,1,0,0,1,1,1.06,11,11,0,0,1-.44,2.65,12.47,12.47,0,0,1,2.31-1.22.94.94,0,0,1,1.3.6l0,.08a.92.92,0,0,1-.68,1.3,10.83,10.83,0,0,1-2.58.38,11.75,11.75,0,0,1,1.93,1.82,1,1,0,0,1-.16,1.41l-.11.08a1,1,0,0,1-1.44-.27,11.7,11.7,0,0,1-1.19-2.36A13.39,13.39,0,0,1,341,375a1,1,0,0,1-1.44.27l-.11-.08a1,1,0,0,1-.16-1.41,12.72,12.72,0,0,1,1.93-1.84A10.16,10.16,0,0,1,338.65,371.58Z"></path></g><g style="opacity:0.2"><path d="M429.4,322.38v-7.12a8.14,8.14,0,0,1,16.27,0v7.07h3.24v-7.07a11.38,11.38,0,0,0-22.75,0v7.12Z" style="fill:none;stroke:#000;stroke-miterlimit:10"></path><rect x="424.96" y="322.4" width="24.83" height="20.54" style="fill:none;stroke:#000;stroke-miterlimit:10"></rect><path d="M440,330.93a2.71,2.71,0,0,0-5.41,0,2.63,2.63,0,0,0,1.42,2.33l-.46,4.66H439l-.45-4.66A2.65,2.65,0,0,0,440,330.93Z" style="fill:none;stroke:#000;stroke-miterlimit:10"></path></g><g style="opacity:0.2"><path d="M77.61,99V91.86a8.14,8.14,0,0,1,16.27,0v7.07h3.24V91.86a11.38,11.38,0,0,0-22.75,0V99Z" style="fill:none;stroke:#000;stroke-miterlimit:10"></path><rect x="73.17" y="99" width="24.83" height="20.54" style="fill:none;stroke:#000;stroke-miterlimit:10"></rect><path d="M88.17,107.53a2.71,2.71,0,0,0-5.41,0,2.63,2.63,0,0,0,1.42,2.33l-.46,4.67H87.2l-.45-4.67A2.65,2.65,0,0,0,88.17,107.53Z" style="fill:none;stroke:#000;stroke-miterlimit:10"></path></g><g style="opacity:0.2"><path d="M387.62,45.17V40.5a5.34,5.34,0,0,1,10.67,0v4.64h2.13V40.5a7.46,7.46,0,0,0-14.92,0v4.67Z" style="fill:none;stroke:#000;stroke-miterlimit:10"></path><rect x="384.71" y="45.18" width="16.29" height="13.48" style="fill:none;stroke:#000;stroke-miterlimit:10"></rect><path d="M394.55,50.78a1.78,1.78,0,0,0-3.55,0,1.72,1.72,0,0,0,.93,1.52l-.3,3.07h2.28l-.29-3.07A1.72,1.72,0,0,0,394.55,50.78Z" style="fill:none;stroke:#000;stroke-miterlimit:10"></path></g></g><g id="freepik--window-2--inject-83"><rect x="117.17" y="86.62" width="318.28" height="169.04" style="fill:#fff;stroke:#263238;stroke-linecap:round;stroke-linejoin:round"></rect><rect x="172.63" y="86.62" width="262.81" height="15.85" style="fill:#d9d9d9;stroke:#263238;stroke-linecap:round;stroke-linejoin:round"></rect><rect x="228.37" y="86.62" width="207.07" height="15.85" style="fill:#a8a8a8;stroke:#263238;stroke-linecap:round;stroke-linejoin:round"></rect><rect x="116.9" y="71.13" width="318.54" height="15.85" style="fill:#263238;stroke:#263238;stroke-linecap:round;stroke-linejoin:round"></rect><path d="M338.05,82.19H130.94a3.43,3.43,0,0,1-3.43-3.43h0a3.42,3.42,0,0,1,3.43-3.42H338.05a3.43,3.43,0,0,1,3.43,3.42h0A3.44,3.44,0,0,1,338.05,82.19Z" style="fill:#a8a8a8;stroke:#263238;stroke-linecap:round;stroke-linejoin:round"></path><circle cx="400.57" cy="79.22" r="2.88" style="fill:#fff;stroke:#263238;stroke-linecap:round;stroke-linejoin:round"></circle><path d="M415.46,79.22a2.89,2.89,0,1,0-2.88,2.88A2.88,2.88,0,0,0,415.46,79.22Z" style="fill:#fff;stroke:#263238;stroke-linecap:round;stroke-linejoin:round"></path><circle cx="424.58" cy="79.22" r="2.88" style="fill:#fff;stroke:#263238;stroke-linecap:round;stroke-linejoin:round"></circle><polygon points="137.73 154.3 173.12 154.3 173.12 130.28 152.58 130.28 150.49 124.42 137.73 124.42 137.73 154.3" style="fill:#d9d9d9;stroke:#b5b5b5;stroke-miterlimit:10"></polygon><polygon points="137.73 200.69 173.12 200.69 173.12 176.67 152.58 176.67 150.49 170.81 137.73 170.81 137.73 200.69" style="fill:#d9d9d9;stroke:#b5b5b5;stroke-miterlimit:10"></polygon><polygon points="137.73 247.08 173.12 247.08 173.12 223.06 152.58 223.06 150.49 217.19 137.73 217.19 137.73 247.08" style="fill:#d9d9d9;stroke:#b5b5b5;stroke-miterlimit:10"></polygon><polygon points="186.9 154.3 222.28 154.3 222.28 130.28 201.74 130.28 199.66 124.42 186.9 124.42 186.9 154.3" style="fill:#d9d9d9;stroke:#b5b5b5;stroke-miterlimit:10"></polygon><polygon points="186.9 200.69 222.28 200.69 222.28 176.67 201.74 176.67 199.66 170.81 186.9 170.81 186.9 200.69" style="fill:#d9d9d9;stroke:#b5b5b5;stroke-miterlimit:10"></polygon><polygon points="186.9 247.08 222.28 247.08 222.28 223.06 201.74 223.06 199.66 217.19 186.9 217.19 186.9 247.08" style="fill:#d9d9d9;stroke:#b5b5b5;stroke-miterlimit:10"></polygon><polygon points="236.06 154.3 271.44 154.3 271.44 130.28 250.91 130.28 248.82 124.42 236.06 124.42 236.06 154.3" style="fill:#d9d9d9;stroke:#b5b5b5;stroke-miterlimit:10"></polygon><polygon points="236.06 200.69 271.44 200.69 271.44 176.67 250.91 176.67 248.82 170.81 236.06 170.81 236.06 200.69" style="fill:#d9d9d9;stroke:#b5b5b5;stroke-miterlimit:10"></polygon><polygon points="236.06 247.08 271.44 247.08 271.44 223.06 250.91 223.06 248.82 217.19 236.06 217.19 236.06 247.08" style="fill:#d9d9d9;stroke:#b5b5b5;stroke-miterlimit:10"></polygon><polygon points="285.22 154.3 320.61 154.3 320.61 130.28 300.07 130.28 297.98 124.42 285.22 124.42 285.22 154.3" style="fill:#d9d9d9;stroke:#b5b5b5;stroke-miterlimit:10"></polygon><polygon points="285.22 200.69 320.61 200.69 320.61 176.67 300.07 176.67 297.98 170.81 285.22 170.81 285.22 200.69" style="fill:#d9d9d9;stroke:#b5b5b5;stroke-miterlimit:10"></polygon><polygon points="285.22 247.08 320.61 247.08 320.61 223.06 300.07 223.06 297.98 217.19 285.22 217.19 285.22 247.08" style="fill:#d9d9d9;stroke:#b5b5b5;stroke-miterlimit:10"></polygon><polygon points="334.39 154.3 369.77 154.3 369.77 130.28 349.23 130.28 347.15 124.42 334.39 124.42 334.39 154.3" style="fill:#d9d9d9;stroke:#b5b5b5;stroke-miterlimit:10"></polygon><polygon points="334.39 200.69 369.77 200.69 369.77 176.67 349.23 176.67 347.15 170.81 334.39 170.81 334.39 200.69" style="fill:#d9d9d9;stroke:#b5b5b5;stroke-miterlimit:10"></polygon><polygon points="334.39 247.08 369.77 247.08 369.77 223.06 349.23 223.06 347.15 217.19 334.39 217.19 334.39 247.08" style="fill:#d9d9d9;stroke:#b5b5b5;stroke-miterlimit:10"></polygon><polygon points="383.55 154.3 418.94 154.3 418.94 130.28 398.4 130.28 396.31 124.42 383.55 124.42 383.55 154.3" style="fill:#d9d9d9;stroke:#b5b5b5;stroke-miterlimit:10"></polygon><polygon points="383.55 200.69 418.94 200.69 418.94 176.67 398.4 176.67 396.31 170.81 383.55 170.81 383.55 200.69" style="fill:#d9d9d9;stroke:#b5b5b5;stroke-miterlimit:10"></polygon><polygon points="383.55 247.08 418.94 247.08 418.94 223.06 398.4 223.06 396.31 217.19 383.55 217.19 383.55 247.08" style="fill:#d9d9d9;stroke:#b5b5b5;stroke-miterlimit:10"></polygon></g><g id="freepik--window-1--inject-83"><rect x="208.36" y="120.01" width="127.5" height="112.5" style="opacity:0.30000000000000004"></rect><rect x="211.56" y="114.26" width="127.5" height="112.5" style="fill:#fff;stroke:#263238;stroke-linecap:round;stroke-linejoin:round"></rect><rect x="211.56" y="114.26" width="127.5" height="8.04" style="fill:#263238;stroke:#263238;stroke-linecap:round;stroke-linejoin:round"></rect><path d="M267.34,162.44V150.58a8.13,8.13,0,0,1,16.26,0v6.93h3.24v-6.93a11.37,11.37,0,0,0-22.74,0v11.86Z" style="fill:#fff;stroke:#263238;stroke-linecap:round;stroke-linejoin:round"></path><rect x="262.89" y="161.28" width="24.83" height="20.54" style="fill:#06283D;stroke:#263238;stroke-linecap:round;stroke-linejoin:round"></rect><line x1="291.26" y1="153.75" x2="292.87" y2="150.07" style="fill:none;stroke:#263238;stroke-linecap:round;stroke-linejoin:round"></line><line x1="291.49" y1="158.11" x2="297.47" y2="158.11" style="fill:none;stroke:#263238;stroke-linecap:round;stroke-linejoin:round"></line><line x1="290.8" y1="162.25" x2="294.02" y2="165.7" style="fill:none;stroke:#263238;stroke-linecap:round;stroke-linejoin:round"></line><path d="M277.89,169.81a2.71,2.71,0,1,0-4,2.33l-.45,4.67h3.47l-.45-4.67A2.63,2.63,0,0,0,277.89,169.81Z" style="fill:#263238;stroke:#263238;stroke-linecap:round;stroke-linejoin:round"></path><rect x="226.85" y="190.19" width="96.91" height="17.49" rx="4" style="fill:#fff;stroke:#263238;stroke-linecap:round;stroke-linejoin:round"></rect><path d="M236.26,199.49a.94.94,0,0,1-.7-1.28l.05-.13a.94.94,0,0,1,1.3-.57,11.1,11.1,0,0,1,2.31,1.22,11,11,0,0,1-.44-2.66,1,1,0,0,1,1-1.06h.14a1,1,0,0,1,1,1.06,11.45,11.45,0,0,1-.43,2.66,12.14,12.14,0,0,1,2.3-1.22.93.93,0,0,1,1.3.59l0,.09a.93.93,0,0,1-.68,1.3,11.36,11.36,0,0,1-2.57.38,10.86,10.86,0,0,1,1.92,1.81,1,1,0,0,1-.16,1.41l-.11.09a.94.94,0,0,1-1.44-.28,12.13,12.13,0,0,1-1.19-2.35,13.26,13.26,0,0,1-1.22,2.35.94.94,0,0,1-1.44.28l-.1-.09a1,1,0,0,1-.17-1.41,12.72,12.72,0,0,1,1.93-1.84A10.25,10.25,0,0,1,236.26,199.49Z" style="fill:#263238"></path><path d="M246.4,199.49a.94.94,0,0,1-.7-1.28l.05-.13a.94.94,0,0,1,1.3-.57,11.1,11.1,0,0,1,2.31,1.22,11,11,0,0,1-.44-2.66,1,1,0,0,1,1-1.06H250a1,1,0,0,1,1,1.06,11.45,11.45,0,0,1-.43,2.66,12.14,12.14,0,0,1,2.3-1.22,1,1,0,0,1,1.31.59l0,.09a.93.93,0,0,1-.68,1.3,11.36,11.36,0,0,1-2.57.38,10.86,10.86,0,0,1,1.92,1.81,1,1,0,0,1-.16,1.41l-.11.09a.93.93,0,0,1-1.43-.28,11.57,11.57,0,0,1-1.2-2.35,13.26,13.26,0,0,1-1.22,2.35.94.94,0,0,1-1.44.28l-.1-.09a1,1,0,0,1-.17-1.41,12.72,12.72,0,0,1,1.93-1.84A10.25,10.25,0,0,1,246.4,199.49Z" style="fill:#263238"></path><path d="M256.54,199.49a1,1,0,0,1-.7-1.28l0-.13a.94.94,0,0,1,1.3-.57,11.1,11.1,0,0,1,2.31,1.22,11,11,0,0,1-.43-2.66,1,1,0,0,1,1-1.06h.14a1,1,0,0,1,1,1.06,11.45,11.45,0,0,1-.43,2.66,12.14,12.14,0,0,1,2.3-1.22,1,1,0,0,1,1.31.59l0,.09a.93.93,0,0,1-.67,1.3,11.54,11.54,0,0,1-2.58.38,10.86,10.86,0,0,1,1.92,1.81,1,1,0,0,1-.16,1.41l-.11.09a.93.93,0,0,1-1.43-.28,12.1,12.1,0,0,1-1.2-2.35,13.26,13.26,0,0,1-1.22,2.35.93.93,0,0,1-1.43.28l-.11-.09a1,1,0,0,1-.17-1.41,12.72,12.72,0,0,1,1.93-1.84A10.25,10.25,0,0,1,256.54,199.49Z" style="fill:#263238"></path><path d="M266.68,199.49a1,1,0,0,1-.7-1.28l0-.13a.94.94,0,0,1,1.3-.57,11.1,11.1,0,0,1,2.31,1.22,11.45,11.45,0,0,1-.43-2.66,1,1,0,0,1,1-1.06h.14a1,1,0,0,1,1,1.06,11.45,11.45,0,0,1-.43,2.66,12.14,12.14,0,0,1,2.3-1.22,1,1,0,0,1,1.31.59l0,.09a.93.93,0,0,1-.67,1.3,11.54,11.54,0,0,1-2.58.38,10.86,10.86,0,0,1,1.92,1.81,1,1,0,0,1-.16,1.41l-.11.09a.93.93,0,0,1-1.43-.28,12.1,12.1,0,0,1-1.2-2.35A13.26,13.26,0,0,1,269,202.9a.93.93,0,0,1-1.43.28l-.11-.09a1,1,0,0,1-.17-1.41,12.72,12.72,0,0,1,1.93-1.84A10.25,10.25,0,0,1,266.68,199.49Z" style="fill:#263238"></path><path d="M276.82,199.49a1,1,0,0,1-.7-1.28l.05-.13a1,1,0,0,1,1.31-.57,11.3,11.3,0,0,1,2.3,1.22,11.45,11.45,0,0,1-.43-2.66,1,1,0,0,1,1-1.06h.14a1,1,0,0,1,1,1.06,11.45,11.45,0,0,1-.43,2.66,12.14,12.14,0,0,1,2.3-1.22,1,1,0,0,1,1.31.59l0,.09a.93.93,0,0,1-.67,1.3,11.54,11.54,0,0,1-2.58.38,10.86,10.86,0,0,1,1.92,1.81,1,1,0,0,1-.16,1.41l-.11.09a.93.93,0,0,1-1.43-.28,12.1,12.1,0,0,1-1.2-2.35,13.26,13.26,0,0,1-1.22,2.35.93.93,0,0,1-1.43.28l-.11-.09a.94.94,0,0,1-.16-1.41,12.16,12.16,0,0,1,1.92-1.84A10.25,10.25,0,0,1,276.82,199.49Z" style="fill:#263238"></path><path d="M287,199.49a1,1,0,0,1-.7-1.28l.05-.13a1,1,0,0,1,1.31-.57,11.3,11.3,0,0,1,2.3,1.22,11.45,11.45,0,0,1-.43-2.66,1,1,0,0,1,1-1.06h.14a1,1,0,0,1,1,1.06,11.45,11.45,0,0,1-.43,2.66,11.9,11.9,0,0,1,2.31-1.22.94.94,0,0,1,1.3.59l0,.09a.93.93,0,0,1-.67,1.3,11.45,11.45,0,0,1-2.58.38,11.31,11.31,0,0,1,1.93,1.81,1,1,0,0,1-.17,1.41l-.11.09a.93.93,0,0,1-1.43-.28,12.1,12.1,0,0,1-1.2-2.35,13.26,13.26,0,0,1-1.22,2.35.93.93,0,0,1-1.43.28l-.11-.09a.94.94,0,0,1-.16-1.41,12.16,12.16,0,0,1,1.92-1.84A10.25,10.25,0,0,1,287,199.49Z" style="fill:#263238"></path><path d="M297.11,199.49a1,1,0,0,1-.71-1.28l.05-.13a1,1,0,0,1,1.31-.57,11.3,11.3,0,0,1,2.3,1.22,11.45,11.45,0,0,1-.43-2.66,1,1,0,0,1,1-1.06h.14a1,1,0,0,1,1,1.06,11,11,0,0,1-.44,2.66,11.9,11.9,0,0,1,2.31-1.22.94.94,0,0,1,1.3.59l0,.09a.93.93,0,0,1-.68,1.3,11.45,11.45,0,0,1-2.58.38,11.31,11.31,0,0,1,1.93,1.81,1,1,0,0,1-.17,1.41l-.1.09a.94.94,0,0,1-1.44-.28,11.59,11.59,0,0,1-1.19-2.35,13.22,13.22,0,0,1-1.23,2.35.93.93,0,0,1-1.43.28l-.11-.09a.94.94,0,0,1-.16-1.41,12.16,12.16,0,0,1,1.92-1.84A10.1,10.1,0,0,1,297.11,199.49Z" style="fill:#263238"></path><path d="M307.25,199.49a1,1,0,0,1-.71-1.28l0-.13a1,1,0,0,1,1.31-.57,11.3,11.3,0,0,1,2.3,1.22,11.45,11.45,0,0,1-.43-2.66,1,1,0,0,1,1-1.06h.14a1,1,0,0,1,1,1.06,11,11,0,0,1-.44,2.66,11.9,11.9,0,0,1,2.31-1.22.94.94,0,0,1,1.3.59l0,.09a.93.93,0,0,1-.68,1.3,11.45,11.45,0,0,1-2.58.38,11.31,11.31,0,0,1,1.93,1.81,1,1,0,0,1-.17,1.41l-.11.09a.93.93,0,0,1-1.43-.28,11.59,11.59,0,0,1-1.19-2.35,13.22,13.22,0,0,1-1.23,2.35.93.93,0,0,1-1.43.28l-.11-.09a.94.94,0,0,1-.16-1.41,12.16,12.16,0,0,1,1.92-1.84A10.1,10.1,0,0,1,307.25,199.49Z" style="fill:#263238"></path></g><g id="freepik--Character--inject-83"><path d="M148.35,454.5h3.45a.89.89,0,0,0,.89-.84l2.74-28.54h-10.7l2.73,28.54A.9.9,0,0,0,148.35,454.5Z" style="fill:#fff;stroke:#263238;stroke-linecap:round;stroke-linejoin:round"></path><path d="M115,454.5h3.45a.9.9,0,0,0,.89-.84l2.73-28.54h-10.7l2.74,28.54A.89.89,0,0,0,115,454.5Z" style="fill:#fff;stroke:#263238;stroke-linecap:round;stroke-linejoin:round"></path><path d="M169.35,454.5h3.45a.89.89,0,0,0,.89-.84l2.74-28.54h-10.7l2.73,28.54A.9.9,0,0,0,169.35,454.5Z" style="fill:#fff;stroke:#263238;stroke-linecap:round;stroke-linejoin:round"></path><path d="M204,454.5h3.45a.9.9,0,0,0,.89-.84l2.73-28.54h-10.7l2.74,28.54A.89.89,0,0,0,204,454.5Z" style="fill:#fff;stroke:#263238;stroke-linecap:round;stroke-linejoin:round"></path><path d="M153.56,426.29h68.52s7-23.4,12.46-46,11.68-51,5.06-56.85-24.14,4.29-37.38,7-16-.39-24.91-9.73-16.74-24.53-31.93-34.26-26.47-11.29-37-4.67a36.27,36.27,0,0,0-11.3,24.13c-.77,15.19,3.51,34.27,9,44.78S153.56,426.29,153.56,426.29Z" style="fill:#fff;stroke:#263238;stroke-linecap:round;stroke-linejoin:round"></path><path d="M143.93,383.45h74s13.33-13.33,15.33-45.33" style="fill:none;stroke:#263238;stroke-linecap:round;stroke-linejoin:round"></path><path d="M195.66,254.05l-8.38,5.12s5.82,31.89,4.43,48.65-8.38,32.82-8.38,32.82H205.9s8.38-20,12.11-34-2.79-46.79-2.79-46.79Z" style="fill:#757575;stroke:#263238;stroke-linecap:round;stroke-linejoin:round"></path><path d="M288.56,339.05s4.81-1.53,6.1-1.52,5.48,3.29,5.48,3.29.17,1.2-.78,1.45-4.2-2-4.2-2l-5.41,1.6Z" style="fill:#d9d9d9;stroke:#263238;stroke-linecap:round;stroke-linejoin:round"></path><path d="M289.08,336a40.71,40.71,0,0,1,6.15,1.35c1.15.57,3.45,5.37,3.45,5.37s-.38,1.15-1.34,1-2.88-3.65-2.88-3.65l-5.57-1Z" style="fill:#d9d9d9;stroke:#263238;stroke-linecap:round;stroke-linejoin:round"></path><path d="M283.83,334.45l6.34,1.54,4,2.69,2.3,5.56a2.12,2.12,0,0,1-1.73.58c-1-.19-5-4.61-5-4.61L284,336.56l-1.92-2.11Z" style="fill:#d9d9d9;stroke:#263238;stroke-linecap:round;stroke-linejoin:round"></path><path d="M270,332.73s9.79.38,11.9.38,7.68,4.41,8.64,4.8,5,6.14,5,6.14.19,0-1.15.39-3.46-1-3.46-1l-2.68-3.27-6.53-1.15s4.8,2.5,5.95,2.88,1.92,1.73,1.54,2.5-6.18-1.72-6.18-1.72a5.22,5.22,0,0,1-4.47,0c-2.31-1.15-2.61-1.18-5.05-2.31s-7.34-4-7.34-4Z" style="fill:#d9d9d9;stroke:#263238;stroke-linecap:round;stroke-linejoin:round"></path><path d="M220.1,264.29s3.73.7,4.66,2.79,7,49.59,7,49.59l40,14.62-.77,14s-47.37-5.81-50.63-5.11-11.18,1.63-14.44-.94S215,326,217.26,316.12c5.34-23.33,4.67-39.33,4.67-39.33S215.45,261.5,220.1,264.29Z" style="fill:#06283D;stroke:#263238;stroke-linecap:round;stroke-linejoin:round"></path><path d="M225.23,291.52s-5.82,23.28-8.38,29.57-7.69,16.76-7.69,16.76l-5.58.93s11.64-25.14,13.73-35.15-2.56-35.38-2.79-36.31,1.63-6.75,5.12-5.59" style="fill:#06283D;stroke:#263238;stroke-linecap:round;stroke-linejoin:round"></path><polygon points="214.75 285.01 208 302 200.78 283.84 209.4 277.09 214.75 285.01" style="fill:#fff;stroke:#263238;stroke-linecap:round;stroke-linejoin:round"></polygon><polygon points="216.38 271.27 218.94 291.06 208 282.68 216.38 271.27" style="fill:#fff;stroke:#263238;stroke-linecap:round;stroke-linejoin:round"></polygon><path d="M246.88,236.07s-.24,13.14-1.31,15-3.33,4.63-3.43,7.14,2.9,7.93,1.1,9.67a4.41,4.41,0,0,1-4.27.89s-5.85,7-9.12,8.62-12-3-12-3l-8.71,9-16.06-29.1,9.2-6.19s3.55-18.29,14.94-22.14S245.1,231.46,246.88,236.07Z" style="fill:#d9d9d9;stroke:#263238;stroke-linecap:round;stroke-linejoin:round"></path><path d="M214.8,252.63s-3.52,7.35-.5,12" style="fill:none;stroke:#263238;stroke-linecap:round;stroke-linejoin:round"></path><path d="M237.25,254.85c-.44,1-.42,2,.05,2.18s1.21-.43,1.65-1.43.43-2,0-2.18S237.7,253.85,237.25,254.85Z" style="fill:#263238"></path><path d="M235.11,269.33s-3.52-.71-3.52-3.52" style="fill:none;stroke:#263238;stroke-linecap:round;stroke-linejoin:round"></path><line x1="234.87" y1="255.73" x2="237.45" y2="258.08" style="fill:none;stroke:#263238;stroke-linecap:round;stroke-linejoin:round"></line><path d="M242,251s-.13-3.45-5.72-2" style="fill:none;stroke:#263238;stroke-linecap:round;stroke-linejoin:round"></path><path d="M254.55,226.23c-2.46.27-4.91,2.18-5.73.54s-.27-7.64-4.37-8.18-3.82,1.36-5.18,1.64-3-6-8.18-5.19-8.44,3-8.73,4.08c-8.94-.07-14.44,3.57-18.38,10.87-4.33,8-1.68,18.1-1.68,18.1s-4.08,3.16-.82,4.09,13.32.45,13.32.45l-1.06-.47c-1.07-.47-2.79-4,.73-9.1s5.91-.69,6.22,1.49.49,4,1.77,4.61,2.15-.83,2.48-2.72,4.18-2,7-3.24.15-3.75-2.22-7.61,3.64-4.75,9.22-1.25c3.22,2,4.9,3.1,6.49,3.3l.08.05s2.72,2.18,4.91.27,3.54-2.18,5.45-4.37S257,226,254.55,226.23Z" style="fill:#263238;stroke:#263238;stroke-linecap:round;stroke-linejoin:round"></path><path d="M194,252.65l15.37,29.8-9.78,10.24s-8.38-22.58-9.31-28.17-1.63-9.54-1.63-9.54Z" style="fill:#fff;stroke:#263238;stroke-linecap:round;stroke-linejoin:round"></path><path d="M202.93,336.79s45-2.34,50.67,0,7,8.33,6.33,14.33-4,41.33-5.33,51.33-2,22.34-1,24.67,4,6.33,3,8.67-2.67,3.33-2.67,4.33a6.41,6.41,0,0,0,1.33,2.67s12.34,5.33,16.67,7,4.67,3,3.67,3.66-21.67,0-25.34,0-10.66-2.33-10.66-2.33v1.67h-9v-6.34a54.53,54.53,0,0,1,.33-6s-1.67-4.33-1.33-6,2.33-5.33,3-8.66,0-8-.34-11.67a28.33,28.33,0,0,1,.34-8c.33-2-2-38.33-2-38.33s-26.34,8-29,8.33-24.34,8.33-33.34,6,3.67-30.67,13.67-40.33S202.93,336.79,202.93,336.79Z" style="fill:#263238;stroke:#263238;stroke-linecap:round;stroke-linejoin:round"></path><path d="M184.6,333.45s29.66,2.34,33,5.67,2.33,10,2.33,14.33-4,62-4.33,65.34,3.33,6.66,2,9a15.22,15.22,0,0,0-2,6c0,1,9,8.33,12.66,10.33s14,4.33,15.67,6,1.33,3-1.67,4-28,0-28,0-3.66,0-5-1a9.09,9.09,0,0,0-2.33-1.33L206.6,454h-13a94,94,0,0,1-1.34-10.9,54,54,0,0,1,1-8.33,10.42,10.42,0,0,1-1.66-6c.33-3,2.66-4.34,2.66-6.34s-2-8-1.66-11.66.66-8,.66-8l-3-29.34s-20,11-29.66,10-12.34-2.33-15-7-2.67-24.33,1.66-32S175.6,329.79,184.6,333.45Z" style="fill:#263238;stroke:#263238;stroke-linecap:round;stroke-linejoin:round"></path><path d="M188.68,255s7,17.46,7.68,27.93-.23,34.92-2.79,41.9-3.73,11.41-3.73,11.41-23.27,3.49-26.3,4.65-9.31,10.25-10.48,17.93c-.33,2.21-.57,4.6-.74,6.88a56.89,56.89,0,0,0,1.17,15.56c.19,1,.23,1.76-.06,2.05-.93.93-13.4-4.71-17.59-19.14s-2.1-31.42,1.63-39.34,18.15-55.17,24.44-61.45S188.68,255,188.68,255Z" style="fill:#06283D;stroke:#263238;stroke-linecap:round;stroke-linejoin:round"></path><path d="M267.43,338.84s8.8,1.14,11.07,1.71a7.69,7.69,0,0,1,3.8,2.63l-.85.79-6.36-2.41Z" style="fill:#d9d9d9;stroke:#263238;stroke-linecap:round;stroke-linejoin:round"></path><path d="M271,340.24s5.37.33,6,1,3.51,5.48,3.51,5.48l-1.31.88-3.62-3.4L271,341.67Z" style="fill:#d9d9d9;stroke:#263238;stroke-linecap:round;stroke-linejoin:round"></path><path d="M261.16,338.26s10,.85,11.95,2,4.5,6.25,4.5,6.25l-1.42.56-4.82-4.82-11.91-2Z" style="fill:#d9d9d9;stroke:#263238;stroke-linecap:round;stroke-linejoin:round"></path><path d="M260.72,343.31s2.75,1.43,4.17,1.43,5.92-1.54,5.92-1.54a53.92,53.92,0,0,0-5.37-2C264.56,341.12,260.72,343.31,260.72,343.31Z" style="fill:#d9d9d9;stroke:#263238;stroke-linecap:round;stroke-linejoin:round"></path><path d="M249,333.72s11.91,2.84,13.33,3.69,8.23,4.25,9.08,4.82,3.41,5.11,3.41,5.11-1.71,2-2.27.56a19.23,19.23,0,0,0-3.12-4l-5.11-1.7a15.09,15.09,0,0,1-6,1.42c-3.12,0-6.48-3.08-6.48-3.08L246.12,342Z" style="fill:#d9d9d9;stroke:#263238;stroke-linecap:round;stroke-linejoin:round"></path><path d="M178.46,267.24s7.07,6.17,7.65,13.13.5,9.76.55,10.93,4.2,31.74,4.2,31.74l59.43,9.63-1.14,13.2-67.72-1.3s-4.62.93-7.12-2.44-17-54.48-17-54.48" style="fill:#06283D;stroke:#263238;stroke-linecap:round;stroke-linejoin:round"></path><path d="M179.21,327.69a12.13,12.13,0,0,0-1.79,1.91" style="fill:none;stroke:#263238;stroke-linecap:round;stroke-linejoin:round"></path><path d="M190,324.07a18.47,18.47,0,0,0-8.41,2" style="fill:none;stroke:#263238;stroke-linecap:round;stroke-linejoin:round"></path><path d="M185.89,326.61s-5.73,1.92-6.92,5.94" style="fill:none;stroke:#263238;stroke-linecap:round;stroke-linejoin:round"></path><path d="M153.56,426.29s-1.17-41.7-11.68-69-16.74-30.76-21-29.59-10.51,8.56-14.4,3.5-9.73-19.08-7.4-31.54,7-14.79,9.35-17.9-10.13,4.28-15.58,12.45-5.45,28-2.33,48.67,10.9,79.08,13.62,81.41,9.35,2.34,9.35,2.34h35.82Z" style="fill:#fff;stroke:#263238;stroke-linecap:round;stroke-linejoin:round"></path></g><g id="freepik--Device--inject-83"><rect x="256.31" y="344.55" width="91.5" height="4" style="fill:#fff;stroke:#263238;stroke-linecap:round;stroke-linejoin:round"></rect><rect x="303.49" y="344.55" width="44.32" height="4" style="fill:#b2b2b2;stroke:#263238;stroke-linecap:round;stroke-linejoin:round"></rect><polygon points="360.56 308.79 316.24 308.79 303.49 344.54 347.81 344.54 360.56 308.79" style="fill:#d9d9d9;stroke:#263238;stroke-linecap:round;stroke-linejoin:round"></polygon></g><g id="freepik--Table--inject-83"><path d="M314.07,351h.63a2.59,2.59,0,0,1,2.59,2.59v101a0,0,0,0,1,0,0h-5.8a0,0,0,0,1,0,0v-101A2.59,2.59,0,0,1,314.07,351Z" transform="translate(628.76 805.58) rotate(180)" style="fill:#525252;stroke:#263238;stroke-linecap:round;stroke-linejoin:round"></path><path d="M324.62,351h.63a2.59,2.59,0,0,1,2.59,2.59v101a0,0,0,0,1,0,0H322a0,0,0,0,1,0,0v-101A2.59,2.59,0,0,1,324.62,351Z" transform="translate(649.86 805.58) rotate(180)" style="fill:#525252;stroke:#263238;stroke-linecap:round;stroke-linejoin:round"></path><path d="M242.52,351h.63a2.59,2.59,0,0,1,2.59,2.59v101a0,0,0,0,1,0,0h-5.8a0,0,0,0,1,0,0v-101A2.59,2.59,0,0,1,242.52,351Z" transform="translate(485.67 805.58) rotate(180)" style="fill:#525252;stroke:#263238;stroke-linecap:round;stroke-linejoin:round"></path><path d="M387,351h.63a2.59,2.59,0,0,1,2.59,2.59v101a0,0,0,0,1,0,0h-5.8a0,0,0,0,1,0,0v-101A2.59,2.59,0,0,1,387,351Z" transform="translate(774.6 805.58) rotate(-180)" style="fill:#525252;stroke:#263238;stroke-linecap:round;stroke-linejoin:round"></path><rect x="233.17" y="348.66" width="162.49" height="4.72" transform="translate(628.84 702.04) rotate(180)" style="fill:#fff;stroke:#263238;stroke-linecap:round;stroke-linejoin:round"></rect><rect x="233.17" y="398.7" width="162.49" height="4.72" transform="translate(628.84 802.11) rotate(180)" style="fill:#fff;stroke:#263238;stroke-linecap:round;stroke-linejoin:round"></rect><rect x="262.15" y="393.88" width="42.43" height="4.73" style="fill:#fff;stroke:#263238;stroke-linecap:round;stroke-linejoin:round"></rect><rect x="285.53" y="393.88" width="19.06" height="4.73" style="fill:#fff;stroke:#263238;stroke-linecap:round;stroke-linejoin:round"></rect><rect x="326.57" y="393.88" width="42.43" height="4.73" style="fill:#fff;stroke:#263238;stroke-linecap:round;stroke-linejoin:round"></rect><rect x="349.95" y="393.88" width="19.06" height="4.73" style="fill:#fff;stroke:#263238;stroke-linecap:round;stroke-linejoin:round"></rect><rect x="258.65" y="388.93" width="42.43" height="4.73" style="fill:#fff;stroke:#263238;stroke-linecap:round;stroke-linejoin:round"></rect><rect x="282.02" y="388.93" width="19.06" height="4.73" style="fill:#fff;stroke:#263238;stroke-linecap:round;stroke-linejoin:round"></rect></g><g id="freepik--Floor--inject-83"><line x1="37.3" y1="454.56" x2="475.3" y2="454.56" style="fill:none;stroke:#263238;stroke-linecap:round;stroke-linejoin:round"></line></g></svg>